<svg width="284" height="87" viewBox="0 0 284 87" fill="none" xmlns="http://www.w3.org/2000/svg">
<path d="M199.291 1.50005L199.291 5.30122e-05V5.30122e-05L199.291 1.50005ZM274 86.5001L283.258 71.8617L265.952 71.163L274 86.5001ZM1.24638e-05 1.50008L1.25217e-05 3.00008L199.291 3.00005L199.291 1.50005L199.291 5.30122e-05L1.24058e-05 8.11307e-05L1.24638e-05 1.50008ZM199.291 1.50005L199.291 3.00005C239.319 3.00005 271.161 34.6144 273.047 73.0822L274.545 73.0088L276.043 72.9353C274.081 32.9012 240.95 4.80372e-05 199.291 5.30122e-05L199.291 1.50005Z" fill="#E9EAED"/>
</svg>
