<svg width="3747" height="727" viewBox="0 0 3747 727" fill="none" xmlns="http://www.w3.org/2000/svg">
<path d="M-9.86051e-05 196.212C-9.88626e-05 199.157 2.38772 201.545 5.33323 201.545C8.27875 201.545 10.6666 199.157 10.6666 196.212C10.6666 193.266 8.27875 190.879 5.33324 190.879C2.38772 190.879 -9.83476e-05 193.266 -9.86051e-05 196.212ZM3745.37 257.927C3745.92 257.905 3746.35 257.44 3746.33 256.888C3746.31 256.336 3745.85 255.907 3745.29 255.929L3745.33 256.928L3745.37 257.927ZM984.333 713.055L984.181 712.067L984.333 713.055ZM2161.63 19.2531L2162.07 18.3534V18.3534L2161.63 19.2531ZM5.33323 196.212C4.41164 196.6 4.41284 196.603 4.41506 196.608C4.41714 196.613 4.42036 196.621 4.42452 196.631C4.43286 196.65 4.44523 196.679 4.46165 196.718C4.4945 196.795 4.54356 196.91 4.60892 197.061C4.73963 197.365 4.93553 197.816 5.19734 198.41C5.72096 199.598 6.50821 201.356 7.56481 203.644C9.67798 208.219 12.8686 214.91 17.1823 223.384C25.8096 240.332 38.9299 264.415 56.9089 292.966C92.8656 350.067 148.263 425.056 226.031 496.608C381.588 639.732 626.633 769.082 984.485 714.044L984.333 713.055L984.181 712.067C627.034 766.997 382.579 637.926 227.385 495.136C149.778 423.731 94.4884 348.89 58.6013 291.9C40.6584 263.406 27.5678 239.378 18.9647 222.477C14.6631 214.026 11.4836 207.358 9.38047 202.805C8.32891 200.529 7.54646 198.781 7.02742 197.603C6.76789 197.015 6.57423 196.568 6.4457 196.27C6.38144 196.121 6.33346 196.009 6.30168 195.934C6.28578 195.897 6.27394 195.869 6.26614 195.85C6.26224 195.841 6.25941 195.835 6.25746 195.83C6.25564 195.826 6.25483 195.824 5.33323 196.212ZM984.333 713.055L984.485 714.044C1068.07 701.189 1164.52 642.069 1266.82 563.123C1369.15 484.156 1477.51 385.194 1584.86 292.5C1692.24 199.777 1798.62 113.322 1897.07 59.2378C1995.56 5.13445 2085.83 -16.4196 2161.2 20.1527L2161.63 19.2531L2162.07 18.3534C2085.79 -18.6641 1994.73 3.30606 1896.11 57.4849C1797.45 111.683 1690.93 198.268 1583.55 290.987C1476.14 383.735 1367.87 482.617 1265.6 561.539C1163.3 640.482 1067.21 699.297 984.181 712.067L984.333 713.055ZM2161.63 19.2531L2161.2 20.1527C2447.73 159.2 2843.81 218.628 3168.17 243.308C3330.37 255.649 3474.66 259.304 3578.41 259.874C3630.28 260.158 3672.02 259.672 3700.79 259.114C3715.18 258.835 3726.32 258.538 3733.87 258.311C3737.64 258.198 3740.52 258.102 3742.45 258.034C3743.42 258 3744.15 257.973 3744.64 257.955C3744.88 257.946 3745.06 257.939 3745.19 257.934C3745.25 257.932 3745.3 257.93 3745.33 257.929C3745.34 257.928 3745.35 257.928 3745.36 257.927C3745.37 257.927 3745.37 257.927 3745.33 256.928C3745.29 255.929 3745.29 255.929 3745.28 255.929C3745.27 255.929 3745.26 255.93 3745.25 255.93C3745.22 255.932 3745.17 255.933 3745.11 255.936C3744.99 255.94 3744.8 255.947 3744.56 255.957C3744.07 255.975 3743.34 256.002 3742.38 256.035C3740.45 256.103 3737.58 256.199 3733.81 256.312C3726.27 256.539 3715.13 256.836 3700.75 257.114C3672 257.672 3630.28 258.158 3578.42 257.874C3474.71 257.304 3330.46 253.651 3168.32 241.314C2844.01 216.637 2448.24 157.227 2162.07 18.3534L2161.63 19.2531Z" fill="#E9EAED"/>
</svg>
