<svg width="11" height="787" viewBox="0 0 11 787" fill="none" xmlns="http://www.w3.org/2000/svg">
<path d="M5.33325 -8.15392e-05C2.38773 -8.15392e-05 -8.15392e-05 2.38773 -8.15392e-05 5.33325C-8.15392e-05 8.27877 2.38773 10.6666 5.33325 10.6666C8.27877 10.6666 10.6666 8.27877 10.6666 5.33325C10.6666 2.38773 8.27877 -8.15392e-05 5.33325 -8.15392e-05ZM4.33325 785.333C4.33325 785.885 4.78097 786.333 5.33325 786.333C5.88554 786.333 6.33325 785.885 6.33325 785.333H5.33325H4.33325ZM5.33325 5.33325H4.33325L4.33325 785.333H5.33325H6.33325L6.33325 5.33325H5.33325Z" fill="#E9EAED"/>
</svg>
