<svg width="3751" height="729" viewBox="0 0 3751 729" fill="none" xmlns="http://www.w3.org/2000/svg">
<path d="M6.39964e-05 197.213C6.34814e-05 203.104 4.77569 207.88 10.6667 207.88C16.5578 207.88 21.3334 203.104 21.3334 197.213C21.3334 191.322 16.5578 186.546 10.6667 186.546C4.77569 186.546 6.45114e-05 191.322 6.39964e-05 197.213ZM989.667 714.056L989.363 712.079L989.667 714.056ZM2166.97 20.254L2167.84 18.4547L2166.97 20.254ZM10.6667 197.213C8.82354 197.989 8.82494 197.993 8.82735 197.998C8.8295 198.003 8.83292 198.011 8.83721 198.022C8.84581 198.042 8.85845 198.072 8.87514 198.111C8.90852 198.189 8.95812 198.305 9.02402 198.458C9.15582 198.764 9.35285 199.218 9.6158 199.814C10.1417 201.007 10.9314 202.771 11.9905 205.064C14.1087 209.65 17.3048 216.352 21.6246 224.839C30.264 241.811 43.3991 265.92 61.3962 294.5C97.3877 351.656 152.84 426.719 230.688 498.345C386.426 641.636 631.766 771.126 989.971 716.033L989.667 714.056L989.363 712.079C632.568 766.955 388.408 638.024 233.396 495.401C155.869 424.07 100.633 349.303 64.781 292.368C46.8562 263.903 33.7804 239.901 25.1893 223.024C20.8939 214.586 17.7199 207.929 15.6218 203.387C14.5728 201.116 13.7927 199.373 13.2759 198.201C13.0176 197.615 12.825 197.171 12.6976 196.875C12.6339 196.728 12.5864 196.617 12.5552 196.543C12.5396 196.507 12.528 196.479 12.5204 196.461C12.5167 196.453 12.514 196.446 12.5122 196.442C12.5105 196.438 12.5099 196.437 10.6667 197.213ZM989.667 714.056L989.971 716.033C1073.83 703.135 1170.46 643.863 1272.77 564.915C1375.12 485.926 1483.53 386.925 1590.84 294.258C1698.23 201.533 1804.53 115.143 1902.88 61.1152C2001.3 7.04962 2091.19 -14.2964 2166.09 22.0534L2166.97 20.254L2167.84 18.4547C2091.1 -18.7853 1999.65 3.39284 1900.96 57.6094C1802.2 111.864 1695.61 198.514 1588.23 291.231C1480.79 384.006 1372.56 482.849 1270.32 561.749C1168.03 640.69 1072.11 699.353 989.363 712.079L989.667 714.056ZM2166.97 20.254L2166.09 22.0534C2452.8 161.187 2849.05 220.624 3173.43 245.306C3335.65 257.65 3479.97 261.305 3583.74 261.875C3635.62 262.159 3677.37 261.673 3706.15 261.115C3720.53 260.836 3731.68 260.539 3739.23 260.312C3743.01 260.198 3745.89 260.102 3747.82 260.034C3748.79 260.001 3749.52 259.974 3750.01 259.955C3750.25 259.946 3750.44 259.939 3750.56 259.934C3750.62 259.932 3750.67 259.93 3750.7 259.929C3750.71 259.928 3750.73 259.928 3750.73 259.928C3750.74 259.927 3750.75 259.927 3750.67 257.929C3750.59 255.93 3750.58 255.93 3750.58 255.931C3750.57 255.931 3750.56 255.931 3750.54 255.932C3750.51 255.933 3750.47 255.935 3750.41 255.937C3750.28 255.942 3750.1 255.949 3749.86 255.958C3749.37 255.976 3748.64 256.003 3747.68 256.037C3745.75 256.104 3742.88 256.2 3739.11 256.314C3731.57 256.54 3720.44 256.837 3706.07 257.116C3677.32 257.673 3635.61 258.159 3583.76 257.875C3480.07 257.305 3335.84 253.652 3173.73 241.318C2849.44 216.642 2453.83 157.242 2167.84 18.4547L2166.97 20.254Z" fill="url(#paint0_linear_334_4)"/>
<defs>
<linearGradient id="paint0_linear_334_4" x1="10.6667" y1="364.502" x2="3468.67" y2="363.898" gradientUnits="userSpaceOnUse">
<stop offset="0.958197" stop-color="#E9EAED"/>
<stop offset="1" stop-color="#171219" stop-opacity="0"/>
</linearGradient>
</defs>
</svg>
