<svg width="336" height="301" viewBox="0 0 336 301" fill="none" xmlns="http://www.w3.org/2000/svg">
<path d="M90.9356 238.292C79.2163 248.046 67.0087 252.506 54.3128 251.669C41.6168 250.833 30.5254 246.513 21.0383 238.71C11.5512 230.906 5.06375 220.664 1.57585 207.983C-1.91204 195.302 0.389971 182.272 8.48188 168.894L39.8729 117.056C32.8971 110.924 27.3863 103.538 23.3403 94.8986C19.2943 86.2588 17.2714 76.9222 17.2714 66.8889C17.2714 48.4944 23.8286 32.7477 36.9431 19.6486C50.0575 6.54954 65.8228 0 84.2389 0C102.655 0 118.42 6.54954 131.535 19.6486C144.649 32.7477 151.206 48.4944 151.206 66.8889C151.206 85.2833 144.649 101.03 131.535 114.129C118.42 127.228 102.655 133.778 84.2389 133.778C81.7276 133.778 79.2163 133.638 76.705 133.36C74.1938 133.081 71.822 132.663 69.5897 132.106L37.3616 186.453C34.2923 191.469 33.3157 196.416 34.4318 201.294C35.5479 206.171 37.9197 210.143 41.5471 213.208C45.1745 216.274 49.4995 218.016 54.522 218.434C59.5446 218.852 64.4277 217.11 69.1712 213.208L244.961 62.2903C256.68 52.5356 268.958 48.1461 281.793 49.1215C294.629 50.097 305.79 54.4866 315.277 62.2903C324.764 70.094 331.182 80.3363 334.53 93.0174C337.878 105.698 335.507 118.728 327.415 132.106L296.024 183.944C302.999 190.076 308.51 197.462 312.556 206.101C316.602 214.741 318.625 224.078 318.625 234.111C318.625 252.506 312.068 268.252 298.953 281.351C285.839 294.45 270.074 301 251.658 301C233.242 301 217.476 294.45 204.362 281.351C191.247 268.252 184.69 252.506 184.69 234.111C184.69 215.717 191.247 199.97 204.362 186.871C217.476 173.772 233.242 167.222 251.658 167.222C254.169 167.222 256.61 167.362 258.982 167.64C261.354 167.919 263.656 168.337 265.888 168.894L298.535 114.547C301.604 109.531 302.581 104.584 301.465 99.7063C300.349 94.8289 297.977 90.8574 294.349 87.7917C290.722 84.7259 286.397 82.984 281.375 82.566C276.352 82.1479 271.469 83.8898 266.725 87.7917L90.9356 238.292ZM107.887 90.509C114.444 83.9595 117.723 76.0861 117.723 66.8889C117.723 57.6917 114.444 49.8183 107.887 43.2688C101.33 36.7192 93.4469 33.4444 84.2389 33.4444C75.0308 33.4444 67.1482 36.7192 60.591 43.2688C54.0337 49.8183 50.7551 57.6917 50.7551 66.8889C50.7551 76.0861 54.0337 83.9595 60.591 90.509C67.1482 97.0586 75.0308 100.333 84.2389 100.333C93.4469 100.333 101.33 97.0586 107.887 90.509ZM275.306 257.731C281.863 251.182 285.141 243.308 285.141 234.111C285.141 224.914 281.863 217.041 275.306 210.491C268.748 203.941 260.866 200.667 251.658 200.667C242.45 200.667 234.567 203.941 228.01 210.491C221.453 217.041 218.174 224.914 218.174 234.111C218.174 243.308 221.453 251.182 228.01 257.731C234.567 264.281 242.45 267.556 251.658 267.556C260.866 267.556 268.748 264.281 275.306 257.731Z" fill="#FCFDFF"/>
</svg>
