<svg width="101" height="124" viewBox="0 0 101 124" fill="none" xmlns="http://www.w3.org/2000/svg">
<path d="M45.4143 123.929C42.6972 123.929 40.1499 123.338 37.7725 122.158C35.395 120.978 33.3814 119.306 31.7318 117.142L0 76.2751L2.76561 73.3244C4.70639 71.2589 7.03533 70.0295 9.75242 69.6361C12.4695 69.2426 14.9925 69.7836 17.3215 71.2589L28.0928 77.898V29.5068C28.0928 27.8348 28.6508 26.4332 29.7667 25.3021C30.8827 24.171 32.2655 23.6054 33.9151 23.6054C35.5648 23.6054 36.9719 24.171 38.1363 25.3021C39.3008 26.4332 39.8831 27.8348 39.8831 29.5068V99.1429L25.7639 90.2908L40.902 109.913C41.4842 110.601 42.1635 111.142 42.9398 111.536C43.7161 111.929 44.5409 112.126 45.4143 112.126H77.5827C80.785 112.126 83.5264 110.97 85.8068 108.659C88.0872 106.347 89.2274 103.569 89.2274 100.323V76.7177C89.2274 75.0456 88.6694 73.6441 87.5535 72.513C86.4375 71.3819 85.0547 70.8163 83.4051 70.8163H51.5277V59.0136H83.4051C88.257 59.0136 92.3812 60.7348 95.7775 64.1773C99.1739 67.6198 100.872 71.7999 100.872 76.7177V100.323C100.872 106.815 98.5917 112.372 94.0308 116.994C89.47 121.617 83.9873 123.929 77.5827 123.929H45.4143ZM8.73351 44.2602C7.47201 42.0964 6.50162 39.7604 5.82234 37.2523C5.14307 34.7443 4.80343 32.1624 4.80343 29.5068C4.80343 21.3433 7.64183 14.3846 13.3186 8.63074C18.9954 2.87691 25.8609 0 33.9151 0C41.9694 0 48.8349 2.87691 54.5117 8.63074C60.1885 14.3846 63.0269 21.3433 63.0269 29.5068C63.0269 32.1624 62.6872 34.7443 62.008 37.2523C61.3287 39.7604 60.3583 42.0964 59.0968 44.2602L49.0532 38.3588C49.8296 36.9819 50.4118 35.5803 50.7999 34.1541C51.1881 32.728 51.3822 31.1789 51.3822 29.5068C51.3822 24.589 49.684 20.4089 46.2876 16.9664C42.8913 13.524 38.7671 11.8027 33.9151 11.8027C29.0632 11.8027 24.939 13.524 21.5427 16.9664C18.1463 20.4089 16.4481 24.589 16.4481 29.5068C16.4481 31.1789 16.6422 32.728 17.0304 34.1541C17.4185 35.5803 18.0007 36.9819 18.7771 38.3588L8.73351 44.2602Z" fill="#E9EAED"/>
</svg>
