<svg width="75" height="57" viewBox="0 0 75 57" fill="none" xmlns="http://www.w3.org/2000/svg">
<path d="M63.5323 4.77256C58.6031 2.51196 53.4001 0.907735 48.0559 0.000734443C47.3303 1.30408 46.666 2.66764 46.0795 4.04149C43.2368 3.61145 40.3661 3.39502 37.4913 3.39401C34.621 3.39401 31.7368 3.61273 28.9018 4.03591C28.3229 2.66544 27.6504 1.30657 26.9206 0C21.5835 0.912472 16.3671 2.5259 11.4407 4.78196C1.64573 19.3122 -1.00871 33.4793 0.318436 47.4452C6.05401 51.6933 12.4733 54.9241 19.2974 56.9974C20.8278 54.9258 22.1987 52.7205 23.3627 50.4256C21.142 49.5958 18.9991 48.5703 16.9589 47.3612C17.4958 46.9707 18.0208 46.5686 18.5281 46.178C24.4601 48.9716 30.9419 50.4289 37.4999 50.4289C44.058 50.4289 50.5398 48.9717 56.4722 46.1775C56.9854 46.5976 57.5104 46.9998 58.0413 47.3607C55.9971 48.5721 53.8503 49.6003 51.6259 50.4333C52.7938 52.7333 54.1537 54.93 55.6911 57C62.5215 54.9333 68.9459 51.7026 74.6828 47.4494L74.6812 47.4511C76.2386 31.2551 72.0208 17.2181 63.5323 4.77256ZM25.0412 38.8563C21.3426 38.8563 18.2868 35.4905 18.2868 31.3497C18.2868 27.2091 21.2363 23.8137 25.0294 23.8137C28.8226 23.8137 31.8544 27.2091 31.7896 31.3497C31.7247 35.4905 28.8107 38.8563 25.0412 38.8563ZM49.9586 38.8563C46.254 38.8563 43.2102 35.4905 43.2102 31.3497C43.2102 27.2091 46.1596 23.8137 49.9586 23.8137C53.7575 23.8137 56.766 27.2091 56.7011 31.3497C56.6362 35.4905 53.7281 38.8563 49.9586 38.8563Z" fill="#FCFDFF"/>
</svg>
