<svg width="156" height="300" viewBox="0 0 156 300" fill="none" xmlns="http://www.w3.org/2000/svg">
<path d="M61.7326 300V264.167C46.9947 260.833 34.2727 254.444 23.5668 245C12.861 235.556 5.00535 222.222 0 205L30.8663 192.5C35.0374 205.833 41.2246 215.972 49.4278 222.917C57.631 229.861 68.4064 233.333 81.754 233.333C93.1551 233.333 102.818 230.764 110.743 225.625C118.668 220.486 122.631 212.5 122.631 201.667C122.631 191.944 119.572 184.236 113.455 178.542C107.337 172.847 93.1551 166.389 70.9091 159.167C46.9947 151.667 30.5882 142.708 21.6898 132.292C12.7914 121.875 8.34225 109.167 8.34225 94.1667C8.34225 76.1111 14.1818 62.0833 25.861 52.0833C37.5401 42.0833 49.4973 36.3889 61.7326 35V0H95.1016V35C109.005 37.2222 120.476 42.2917 129.513 50.2083C138.551 58.125 145.155 67.7778 149.326 79.1667L118.46 92.5C115.123 83.6111 110.396 76.9444 104.278 72.5C98.1604 68.0556 89.8182 65.8333 79.2513 65.8333C67.016 65.8333 57.7005 68.5417 51.3048 73.9583C44.9091 79.375 41.7112 86.1111 41.7112 94.1667C41.7112 103.333 45.8824 110.556 54.2246 115.833C62.5668 121.111 77.0267 126.667 97.6043 132.5C116.791 138.056 131.321 146.875 141.193 158.958C151.064 171.042 156 185 156 200.833C156 220.556 150.16 235.556 138.481 245.833C126.802 256.111 112.342 262.5 95.1016 265V300H61.7326Z" fill="#FCFDFF"/>
</svg>
