<svg width="75" height="75" viewBox="0 0 75 75" fill="none" xmlns="http://www.w3.org/2000/svg">
<path d="M37.5 75C32.3125 75 27.4375 74.0156 22.875 72.0469C18.3125 70.0781 14.3438 67.4062 10.9688 64.0312C7.59375 60.6562 4.92188 56.6875 2.95312 52.125C0.984375 47.5625 0 42.6875 0 37.5C0 32.3125 0.984375 27.4375 2.95312 22.875C4.92188 18.3125 7.59375 14.3438 10.9688 10.9688C14.3438 7.59375 18.3125 4.92188 22.875 2.95312C27.4375 0.984375 32.3125 0 37.5 0C42.6875 0 47.5625 0.984375 52.125 2.95312C56.6875 4.92188 60.6562 7.59375 64.0312 10.9688C67.4062 14.3438 70.0781 18.3125 72.0469 22.875C74.0156 27.4375 75 32.3125 75 37.5V42.9375C75 46.625 73.7344 49.7656 71.2031 52.3594C68.6719 54.9531 65.5625 56.25 61.875 56.25C59.6875 56.25 57.625 55.7812 55.6875 54.8438C53.75 53.9062 52.125 52.5625 50.8125 50.8125C49 52.625 46.9531 53.9844 44.6719 54.8906C42.3906 55.7969 40 56.25 37.5 56.25C32.3125 56.25 27.8906 54.4219 24.2344 50.7656C20.5781 47.1094 18.75 42.6875 18.75 37.5C18.75 32.3125 20.5781 27.8906 24.2344 24.2344C27.8906 20.5781 32.3125 18.75 37.5 18.75C42.6875 18.75 47.1094 20.5781 50.7656 24.2344C54.4219 27.8906 56.25 32.3125 56.25 37.5V42.9375C56.25 44.5625 56.7813 45.9375 57.8438 47.0625C58.9062 48.1875 60.25 48.75 61.875 48.75C63.5 48.75 64.8438 48.1875 65.9062 47.0625C66.9687 45.9375 67.5 44.5625 67.5 42.9375V37.5C67.5 29.125 64.5938 22.0312 58.7812 16.2188C52.9688 10.4062 45.875 7.5 37.5 7.5C29.125 7.5 22.0312 10.4062 16.2188 16.2188C10.4062 22.0312 7.5 29.125 7.5 37.5C7.5 45.875 10.4062 52.9688 16.2188 58.7812C22.0312 64.5938 29.125 67.5 37.5 67.5H56.25V75H37.5ZM45.4688 45.4688C47.6563 43.2812 48.75 40.625 48.75 37.5C48.75 34.375 47.6563 31.7188 45.4688 29.5312C43.2812 27.3437 40.625 26.25 37.5 26.25C34.375 26.25 31.7188 27.3437 29.5312 29.5312C27.3437 31.7188 26.25 34.375 26.25 37.5C26.25 40.625 27.3437 43.2812 29.5312 45.4688C31.7188 47.6563 34.375 48.75 37.5 48.75C40.625 48.75 43.2812 47.6563 45.4688 45.4688Z" fill="#FCFDFF"/>
</svg>
