<svg width="282" height="301" viewBox="0 0 282 301" fill="none" xmlns="http://www.w3.org/2000/svg">
<path d="M29.3408 293.408C21.2721 293.408 14.3648 290.535 8.61886 284.789C2.87295 279.043 0 272.136 0 264.067V58.6816C0 50.6129 2.87295 43.7056 8.61886 37.9597C14.3648 32.2137 21.2721 29.3408 29.3408 29.3408H44.0112V0H73.352V29.3408H190.715V0H220.056V29.3408H234.726C242.795 29.3408 249.702 32.2137 255.448 37.9597C261.194 43.7056 264.067 50.6129 264.067 58.6816V152.205L234.726 181.546V117.363H29.3408V264.067H120.297L149.638 293.408H29.3408ZM29.3408 88.0224H234.726V58.6816H29.3408V88.0224ZM198.784 300.743L146.704 248.663L167.243 228.125L198.417 259.299L260.766 196.95L281.305 217.855L198.784 300.743Z" fill="#FCFDFF"/>
</svg>
