<svg width="112" height="124" viewBox="0 0 112 124" fill="none" xmlns="http://www.w3.org/2000/svg">
<path d="M77.7628 112.532V101.279H99.9808V45.013H22.2179V67.5195H11.109V22.5065C11.109 19.4118 12.1967 16.7626 14.3722 14.5589C16.5477 12.3551 19.163 11.2532 22.2179 11.2532H27.7724V0H38.8814V11.2532H83.3173V0H94.4263V11.2532H99.9808C103.036 11.2532 105.651 12.3551 107.826 14.5589C110.002 16.7626 111.09 19.4118 111.09 22.5065V101.279C111.09 104.374 110.002 107.023 107.826 109.227C105.651 111.431 103.036 112.532 99.9808 112.532H77.7628ZM38.8814 123.786L31.1051 115.908L45.4079 101.279H0V90.026H45.4079L31.1051 75.3967L38.8814 67.5195L66.6538 95.6526L38.8814 123.786ZM22.2179 33.7597H99.9808V22.5065H22.2179V33.7597Z" fill="#E9EAED"/>
</svg>
