<svg width="86" height="125" viewBox="0 0 86 125" fill="none" xmlns="http://www.w3.org/2000/svg">
<path d="M42.6961 124.429C34.2585 124.429 27.0663 121.396 21.1193 115.33C15.1724 109.264 12.1989 101.928 12.1989 93.3214V37.3286C8.84419 37.3286 5.97237 36.1102 3.58342 33.6735C1.19447 31.2368 0 28.3075 0 24.8857V12.4429C0 9.02107 1.19447 6.09182 3.58342 3.65509C5.97237 1.21836 8.84419 0 12.1989 0H73.1933C76.548 0 79.4198 1.21836 81.8087 3.65509C84.1977 6.09182 85.3922 9.02107 85.3922 12.4429V24.8857C85.3922 28.3075 84.1977 31.2368 81.8087 33.6735C79.4198 36.1102 76.548 37.3286 73.1933 37.3286V93.3214C73.1933 101.928 70.2198 109.264 64.2728 115.33C58.3259 121.396 51.1336 124.429 42.6961 124.429ZM12.1989 24.8857H73.1933V12.4429H12.1989V24.8857ZM55.6574 106.542C59.2154 102.913 60.9944 98.506 60.9944 93.3214H42.6961V80.8786H60.9944V68.4357H42.6961V55.9929H60.9944V37.3286H24.3978V93.3214C24.3978 98.506 26.1768 102.913 29.7348 106.542C33.2928 110.171 37.6132 111.986 42.6961 111.986C47.7789 111.986 52.0994 110.171 55.6574 106.542Z" fill="#E9EAED"/>
</svg>
