<svg width="19" height="25" viewBox="0 0 19 25" fill="none" xmlns="http://www.w3.org/2000/svg">
<path d="M8.25313 20L14.9625 12.9375L13.2406 11.125L8.22344 16.4062L5.72969 13.7812L4.0375 15.5625L8.25313 20ZM2.375 25C1.72187 25 1.16276 24.7552 0.697656 24.2656C0.232552 23.776 0 23.1875 0 22.5V2.5C0 1.8125 0.232552 1.22396 0.697656 0.734375C1.16276 0.244792 1.72187 0 2.375 0H11.875L19 7.5V22.5C19 23.1875 18.7674 23.776 18.3023 24.2656C17.8372 24.7552 17.2781 25 16.625 25H2.375ZM10.6875 8.75V2.5H2.375V22.5H16.625V8.75H10.6875Z" fill="#E9EAED"/>
</svg>
